<svg xmlns="http://www.w3.org/2000/svg" viewBox="0 0 48 48">
  <g>
    <path fill="#FFFFFF" d="M14.5,32.7c0-1.4-0.3-2.5-0.8-3.3c-0.5-0.8-1.5-1.6-2.8-2.4c-3.2-1.4-5.5-2.9-7-4.5   c-1.5-1.6-2.2-3.9-2.2-6.8c0-2.7,0.8-5,2.3-6.7s3.6-2.8,6.1-3.1V0.7h3.5V6C16,6.4,18,7.7,19.4,9.6c1.4,2,2.1,4.5,2.1,7.7h-7   c0-1.9-0.3-3.4-0.9-4.4c-0.6-1-1.3-1.5-2.3-1.5c-1,0-1.7,0.4-2.2,1.2c-0.5,0.8-0.7,1.9-0.7,3.2c0,1.2,0.3,2.3,0.8,3.1   c0.5,0.8,1.5,1.6,2.9,2.4c3.1,1.5,5.5,3,6.9,4.6c1.5,1.6,2.2,3.9,2.2,6.8c0,2.8-0.8,5-2.3,6.8s-3.5,2.7-6.1,3v4.9H9.6v-4.9   C7,42.1,4.8,41,3.1,39.1c-1.7-1.9-2.6-4.6-2.6-8.3h7c0,2.2,0.4,3.8,1.1,4.7c0.7,1,1.7,1.4,2.8,1.4c1,0,1.8-0.4,2.4-1.2   C14.3,35,14.5,34,14.5,32.7z"/>
    <path fill="#FFFFFF" d="M42.9,12.2H32.7c0.7,3.2,1.1,6.8,1.2,10.8h13.6c-0.2-4.2-1.5-8.1-3.6-11.5C43.8,11.9,43.4,12.2,42.9,12.2z"/>
    <path fill="#FFFFFF" d="M33.9,25c-0.1,3.9-0.5,7.6-1.2,10.8h10.2c0.5,0,0.8,0.3,1,0.7c2.1-3.3,3.4-7.3,3.6-11.5H33.9z"/>
    <path fill="#FFFFFF" d="M32.2,10.1h10.7c0,0,0,0,0,0c-3.7-5-9.3-8.5-15.8-9.4C29.3,2.4,31,5.7,32.2,10.1z"/>
    <path fill="#FFFFFF" d="M42.9,37.9H32.2c-1.2,4.4-2.9,7.7-5,9.4C33.7,46.4,39.3,42.9,42.9,37.9C43,37.9,43,37.9,42.9,37.9z"/>
    <path fill="#FFFFFF" d="M17.5,5.2C17.5,5.2,17.5,5.2,17.5,5.2c1-2.1,2-3.5,3.2-4.5c-1.3,0.2-2.5,0.4-3.7,0.8l-0.1,3.4   C17.1,5,17.3,5.1,17.5,5.2z"/>
    <path fill="#FFFFFF" d="M19.2,6.4c0.7,0.6,1.4,1.2,1.9,2c0.4,0.5,0.7,1.1,1,1.7h7.9c-1.5-5.4-3.9-8.6-6-8.6c-1.6,0-3.2,1.6-4.6,4.5   C19.4,6.2,19.3,6.3,19.2,6.4z"/>
    <path fill="#FFFFFF" d="M23.6,17.3v2.1h-7l0,1.7c1.6,1,2.9,2,3.9,3c0-0.1,0-0.1,0-0.2c0-0.6,0.5-1,1-1h10.3   c-0.1-4-0.5-7.7-1.2-10.8h-7.6C23.4,13.7,23.6,15.4,23.6,17.3z"/>
    <path fill="#FFFFFF" d="M21.6,25c-0.1,0-0.2,0-0.3-0.1c1.5,1.9,2.3,4.5,2.3,7.6c0,1.1-0.1,2.2-0.3,3.2h7.4   c0.7-3.1,1.1-6.7,1.2-10.8H21.6z"/>
    <path fill="#FFFFFF" d="M18.2,44c-0.2-0.4-0.2-0.8,0.1-1.1c-0.7,0.4-1.4,0.7-2.1,0.9l0,2.3c1.5,0.5,3,0.9,4.6,1.1   C19.9,46.6,19,45.5,18.2,44z"/>
    <path fill="#FFFFFF" d="M20.8,40.8c-0.6,0.7-1.3,1.3-2.1,1.8c0.5-0.2,1,0,1.2,0.5c1.2,2.2,2.7,3.5,4,3.5c2.2,0,4.5-3.2,6-8.6h-7.5   C22.1,38.9,21.5,39.9,20.8,40.8z"/>
  </g>
</svg>
